<svg id="Capa_1" enable-background="new 0 0 512 512" height="512" viewBox="0 0 512 512" width="512" xmlns="http://www.w3.org/2000/svg"><path d="m179.198 481.215 55.595-55.52-148.493-148.486-55.593 55.529c-40.942 40.928-40.942 107.549 0 148.477 41.041 41.041 107.468 41.052 148.491 0zm-39.659-87.543c5.858-5.858 15.355-5.858 21.215 0 5.858 5.858 5.858 15.355 0 21.213-5.859 5.858-15.357 5.858-21.215 0s-5.857-15.356 0-21.213zm-42.425-42.428c5.858-5.858 15.355-5.858 21.213 0 5.858 5.859 5.858 15.355 0 21.215-5.858 5.858-15.355 5.858-21.213 0-5.858-5.86-5.858-15.355 0-21.215zm0 42.428c5.858-5.858 15.355-5.858 21.213 0s5.858 15.355 0 21.213-15.355 5.858-21.213 0-5.858-15.356 0-21.213zm0 42.425c5.858-5.858 15.355-5.858 21.213 0s5.858 15.355 0 21.215c-5.858 5.858-15.355 5.858-21.213 0-5.858-5.86-5.858-15.357 0-21.215zm-42.427-42.425c5.858-5.858 15.355-5.858 21.215 0 5.858 5.858 5.858 15.355 0 21.213-5.859 5.858-15.357 5.858-21.215 0s-5.858-15.356 0-21.213z"/><path d="m332.802 481.215c41.023 41.052 107.45 41.041 148.491 0 40.942-40.928 40.942-107.549 0-148.477l-302.106-302.042c-40.928-40.928-107.534-40.928-148.491 0-40.928 40.942-40.928 107.563 0 148.491zm84.846-106.058c5.858-5.858 15.355-5.858 21.213 0s5.858 15.355 0 21.213-15.355 5.858-21.213 0-5.858-15.356 0-21.213zm-42.428-42.426c5.859-5.859 15.357-5.859 21.215 0 5.858 5.858 5.858 15.355 0 21.213s-15.355 5.858-21.215 0c-5.857-5.858-5.857-15.355 0-21.213zm0 42.426c5.859-5.858 15.357-5.858 21.215 0s5.858 15.355 0 21.213-15.355 5.858-21.215 0c-5.857-5.858-5.857-15.356 0-21.213zm0 42.427c5.859-5.859 15.357-5.859 21.215 0 5.858 5.858 5.858 15.355 0 21.213s-15.355 5.858-21.215 0c-5.857-5.858-5.857-15.356 0-21.213zm-21.213-42.427c5.858 5.858 5.858 15.355 0 21.213s-15.355 5.858-21.213 0-5.858-15.355 0-21.213 15.356-5.858 21.213 0zm-119.218-197.804c3.984 0 7.793 1.582 10.605 4.395l84.844 84.858c5.859 5.859 5.859 15.352 0 21.211l-42.422 42.422c-5.859 5.859-15.352 5.859-21.211 0l-84.858-84.844c-5.859-5.859-5.856-15.355 0-21.211l42.437-42.437c2.812-2.812 6.621-4.394 10.605-4.394zm-74.249-59.241c5.858-5.858 15.355-5.858 21.213 0s5.858 15.355 0 21.213c-5.858 5.859-15.355 5.859-21.213 0-5.858-5.857-5.858-15.355 0-21.213zm-42.426-42.425c5.858-5.858 15.355-5.858 21.213 0s5.858 15.355 0 21.213-15.355 5.858-21.213 0c-5.859-5.858-5.859-15.356 0-21.213zm0 42.425c5.858-5.858 15.355-5.858 21.213 0s5.858 15.355 0 21.213c-5.858 5.859-15.355 5.859-21.213 0-5.859-5.857-5.859-15.355 0-21.213zm0 42.428c5.858-5.859 15.355-5.859 21.213 0 5.858 5.858 5.858 15.355 0 21.213s-15.355 5.858-21.213 0c-5.859-5.858-5.859-15.356 0-21.213zm-42.427-42.428c5.858-5.858 15.355-5.858 21.213 0 5.859 5.858 5.859 15.355 0 21.213-5.858 5.859-15.355 5.859-21.213 0-5.858-5.857-5.858-15.355 0-21.213z"/><path d="m298.422 277.211-63.633-63.648-21.226 21.226 63.648 63.633z"/><path d="m481.301 179.187c40.942-40.928 40.928-107.549-.015-148.491-40.928-40.928-107.549-40.928-148.477 0l-55.598 55.602 148.491 148.491zm-45.202-82.075c5.858-5.858 15.355-5.858 21.213 0 5.858 5.859 5.858 15.355 0 21.215-5.858 5.858-15.355 5.858-21.213 0-5.858-5.86-5.858-15.356 0-21.215zm-63.64 21.215c-5.858 5.858-15.355 5.858-21.213 0-5.858-5.859-5.858-15.355 0-21.215 5.858-5.858 15.355-5.858 21.213 0 5.857 5.859 5.857 15.355 0 21.215zm42.425 42.425c-5.858 5.858-15.355 5.858-21.213 0s-5.858-15.355 0-21.213 15.355-5.858 21.213 0c5.86 5.858 5.86 15.356 0 21.213zm0-42.425c-5.858 5.858-15.355 5.858-21.213 0-5.858-5.859-5.858-15.355 0-21.215 5.858-5.858 15.355-5.858 21.213 0 5.86 5.859 5.86 15.355 0 21.215zm0-42.428c-5.858 5.858-15.355 5.858-21.213 0s-5.858-15.355 0-21.213 15.355-5.858 21.213 0c5.86 5.858 5.86 15.356 0 21.213z"/></svg>