<svg id="Layer_1" enable-background="new 0 0 58.877 60" height="512" viewBox="0 0 58.877 60" width="512" xmlns="http://www.w3.org/2000/svg"><path d="m41.948 42.22c-.473-.285-.626-.899-.341-1.372.286-.473.9-.625 1.373-.341l11.139 6.707 4.645-7.681c.286-.473.134-1.087-.338-1.374l-13.493-8.159 13.494-8.159c.473-.286.624-.901.338-1.374l-4.697-7.768-3.367 2.126c-.166.104-.35.154-.533.154-.332 0-.656-.165-.847-.466-.295-.467-.155-1.084.312-1.379l3.399-2.146-1.512-2.501c-.286-.472-.9-.624-1.374-.338l-12.677 7.665v-14.814c0-.552-.448-1-1-1h-9v4c0 .552-.448 1-1 1s-1-.448-1-1v-4h-3c-.552 0-1 .448-1 1v14.814l-12.677-7.665c-.473-.286-1.087-.134-1.374.338l-1.438 2.379 3.355 2.288c.456.311.574.933.263 1.39-.194.284-.508.437-.827.437-.194 0-.39-.056-.562-.174l-3.265-2.226-4.769 7.887c-.137.227-.179.5-.115.757s.227.479.454.617l13.494 8.159-13.494 8.159c-.227.137-.39.359-.454.617s-.022.53.115.757l4.588 7.588 11.202-6.618c.476-.28 1.089-.124 1.37.352s.123 1.089-.353 1.37l-11.185 6.608 1.621 2.681c.286.472.901.624 1.373.338l12.677-7.665v14.812c0 .552.448 1 1 1h9v-11c0-.552.448-1 1-1s1 .448 1 1v11h3c.552 0 1-.448 1-1v-14.814l12.677 7.665c.474.285 1.087.134 1.374-.338l1.564-2.588zm-14.48-24.22c0 .552-.448 1-1 1s-1-.448-1-1v-10c0-.552.448-1 1-1s1 .448 1 1zm6 27c0 .552-.448 1-1 1s-1-.448-1-1v-3c0-.552.448-1 1-1s1 .448 1 1z"/></svg>