<svg id="Capa_1" enable-background="new 0 0 512.007 512.007" height="512" viewBox="0 0 512.007 512.007" width="512" xmlns="http://www.w3.org/2000/svg"><g><path d="m256.004 181.007c-41.353 0-75 33.647-75 75s33.647 75 75 75 75-33.647 75-75-33.648-75-75-75zm30 90h-15v15c0 8.291-6.709 15-15 15s-15-6.709-15-15v-15h-15c-8.291 0-15-6.709-15-15s6.709-15 15-15h15v-15c0-8.291 6.709-15 15-15s15 6.709 15 15v15h15c8.291 0 15 6.709 15 15s-6.709 15-15 15z"/><path d="m436.004 61.007c-55.913 0-110.039-17.392-156.562-48.402l-15.118-10.078c-5.039-3.369-11.602-3.369-16.641 0l-15.117 10.078c-46.523 31.011-100.649 48.402-156.562 48.402-8.291 0-15 6.709-15 15v170.259c0 119.956 76.465 227.04 190.254 264.965 1.538.513 3.149.776 4.746.776s3.208-.264 4.746-.776c113.789-37.925 190.254-145.009 190.254-264.965v-170.259c0-8.291-6.709-15-15-15zm-180 300c-57.891 0-105-47.109-105-105s47.109-105 105-105 105 47.109 105 105-47.11 105-105 105z"/></g></svg>