<svg viewBox="0 -23 512 512" xmlns="http://www.w3.org/2000/svg"><path d="m57.929688 49.660156h-57.929688v103.488282h61.703125c32.4375 0 62.777344 15.914062 81.160156 42.574218l8.136719 11.796875 58.777344-86.773437c-37.300782-44.8125-92.796875-71.085938-151.847656-71.085938zm0 0"/><path d="m380.28125 313.003906c-26.796875-4.078125-50.957031-19.046875-66.488281-41.757812l-7.59375-11.097656-58.925781 86.792968c32.984374 40.300782 81.027343 65.410156 133.070312 69.484375l.03125 50.324219 131.625-102.644531-131.75-103.347657zm0 0"/><path d="m511.382812 102.644531-131.296874-102.644531-.03125 50.324219c-57.433594 4.515625-109.921876 34.816406-142.546876 82.980469l-94.46875 139.460937c-18.304687 27.019531-48.714843 43.152344-81.351562 43.152344h-60.6875v101.449219h70.578125c57.367187 0 110.859375-28.335938 143.082031-75.800782l99.046875-145.875c15.460938-22.773437 39.539063-37.796875 66.285157-41.917968l-.03125 52.21875zm0 0"/></svg>