<svg height="512" viewBox="0 0 56 56" width="512" xmlns="http://www.w3.org/2000/svg"><g id="Page-1" fill="none" fill-rule="evenodd"><g id="036---Magic-Scroll" fill="rgb(0,0,0)" fill-rule="nonzero"><path id="Shape" d="m0 6c0 .55228475.44771525 1 1 1h2v-2h-2c-.55228475 0-1 .44771525-1 1z"/><path id="Shape" d="m36 18.373v5.318l3.664-2.954z"/><path id="Shape" d="m26 18.373v5.318l3.664-2.954z"/><path id="Shape" d="m6 0c-.55228475 0-1 .44771525-1 1v10c0 .5522847.44771525 1 1 1s1-.4477153 1-1v-10c0-.55228475-.44771525-1-1-1z"/><path id="Shape" d="m55 5h-2v2h2c.5522847 0 1-.44771525 1-1s-.4477153-1-1-1z"/><path id="Shape" d="m10 56h4c.5522847 0 1-.4477153 1-1v-2c0-.5522847.4477153-1 1-1s1 .4477153 1 1v1h6v-1c0-.5522847.4477153-1 1-1s1 .4477153 1 1v2c0 .5522847.4477153 1 1 1h4c.5522847 0 1-.4477153 1-1v-2c0-.5522847.4477153-1 1-1s1 .4477153 1 1v1h6v-1c0-.5522847.4477153-1 1-1s1 .4477153 1 1v2c0 .5522847.4477153 1 1 1h4c.5522847 0 1-.4477153 1-1v-42c0-.5522847-.4477153-1-1-1h-36c-.55228475 0-1 .4477153-1 1v42c0 .5522847.44771525 1 1 1zm15-9h-9c-.5522847 0-1-.4477153-1-1s.4477153-1 1-1h9c.5522847 0 1 .4477153 1 1s-.4477153 1-1 1zm7 0h-3c-.5522847 0-1-.4477153-1-1s.4477153-1 1-1h3c.5522847 0 1 .4477153 1 1s-.4477153 1-1 1zm8-5h-24c-.5522847 0-1-.4477153-1-1s.4477153-1 1-1h24c.5522847 0 1 .4477153 1 1s-.4477153 1-1 1zm-6-16.208v-8.258c.0014605-.5601535.3081297-1.0749745.8-1.343.503733-.2755087 1.1179263-.2528603 1.6.059l4.9 3.16c.4136544.2643562.6745203.7118952.7006968 1.2021084.0261764.4902132-.1855466.9629876-.5686968 1.2698916l-5.062 4.081 5.438 7.447c.325848.4462461.2282461 1.072152-.218 1.398s-1.072152.2282461-1.398-.218l-4.192-5.742v5.152c0 .5522847-.4477153 1-1 1s-1-.4477153-1-1zm-10 0v-8.258c.0014605-.5601535.3081297-1.0749745.8-1.343.503733-.2755087 1.1179263-.2528603 1.6.059l4.9 3.16c.4136544.2643562.6745203.7118952.7006968 1.2021084.0261764.4902132-.1855466.9629876-.5686968 1.2698916l-5.432 4.379v7.739c0 .5522847-.4477153 1-1 1s-1-.4477153-1-1zm-10-8.792c0-.5522847.4477153-1 1-1s1 .4477153 1 1v4.586l4.293-4.293c.3923789-.3789722 1.0160848-.3735524 1.4018186.0121814s.3911536 1.0094397.0121814 1.4018186l-5.707 5.707v3.172l4.293-4.293c.3923789-.3789722 1.0160848-.3735524 1.4018186.0121814s.3911536 1.0094397.0121814 1.4018186l-5.707 5.707v3.586c0 .5522847-.4477153 1-1 1s-1-.4477153-1-1z"/><path id="Shape" d="m50 0c-.5522847 0-1 .44771525-1 1v10c0 .5522847.4477153 1 1 1s1-.4477153 1-1v-10c0-.55228475-.4477153-1-1-1z"/><rect id="Rectangle-path" height="8" rx="1" width="38" x="9" y="2"/></g></g></svg>