<?xml version="1.0" encoding="iso-8859-1"?>
<!-- Generator: Adobe Illustrator 16.0.0, SVG Export Plug-In . SVG Version: 6.00 Build 0)  -->
<!DOCTYPE svg PUBLIC "-//W3C//DTD SVG 1.1//EN" "http://www.w3.org/Graphics/SVG/1.1/DTD/svg11.dtd">
<svg version="1.1" id="Capa_1" xmlns="http://www.w3.org/2000/svg" xmlns:xlink="http://www.w3.org/1999/xlink" x="0px" y="0px"
	 width="47.001px" height="47.001px" viewBox="0 0 47.001 47.001" style="enable-background:new 0 0 47.001 47.001;"
	 xml:space="preserve">
<g>
	<path d="M45.434,40.747l-0.999-0.998c1.929-3.382,1.479-6.753-0.748-8.979c-2.456-2.452-5.265-2.645-9.657-0.543
		c-3.189,1.444-4.718,1.825-5.618,0.927c-0.763-0.765-0.955-2.102,0.819-3.874c1.962-1.962,3.845-2.59,4.855-3l-2.292-3.87
		c-1.182,0.41-2.579,1.123-4.209,2.491l-8.071-8.072c-0.033-0.034-0.082-0.044-0.12-0.077c4.051-4.955,5.453-10.331,3.07-12.711
		c-1.83-1.826-5.43-1.386-9.24,0.728c-0.188-0.249-0.368-0.501-0.595-0.73C9.913-0.679,5.506-0.68,2.791,2.038
		c-2.716,2.717-2.719,7.121,0,9.837c0.225,0.228,0.479,0.41,0.73,0.598c-2.119,3.814-2.559,7.41-0.729,9.238
		c2.382,2.389,7.756,0.979,12.71-3.069c0.033,0.039,0.042,0.088,0.077,0.121l8.396,8.395c-1.793,3.218-1.483,6.425,0.728,8.635
		c2.646,2.642,5.999,2.018,9.901,0.078c2.698-1.337,4.228-1.551,5.264-0.516c1.091,1.091,0.626,2.752-0.929,4.308
		c-1.771,1.772-3.955,2.812-5.727,3.329l2.372,4.01c1.479-0.396,3.472-1.486,5.253-2.982l0.658,0.658
		c1.09,1.088,2.851,1.086,3.937,0C46.518,43.597,46.521,41.832,45.434,40.747z M10.656,17.783c-1.082,1.082-2.843,1.085-3.931-0.003
		c-1.085-1.084-1.089-2.849-0.002-3.934c1.088-1.088,2.851-1.085,3.936,0C11.746,14.933,11.746,16.695,10.656,17.783z M10.66,9.91
		c-1.085,1.089-2.85,1.089-3.936,0.001C5.64,8.82,5.64,7.061,6.727,5.977c1.088-1.091,2.851-1.088,3.938-0.001
		C11.749,7.061,11.75,8.821,10.66,9.91z M18.53,9.909c-1.087,1.086-2.848,1.09-3.933,0.003c-1.087-1.093-1.087-2.853,0-3.937
		c1.084-1.088,2.848-1.088,3.932,0C19.62,7.062,19.619,8.824,18.53,9.909z"/>
</g>
<g>
</g>
<g>
</g>
<g>
</g>
<g>
</g>
<g>
</g>
<g>
</g>
<g>
</g>
<g>
</g>
<g>
</g>
<g>
</g>
<g>
</g>
<g>
</g>
<g>
</g>
<g>
</g>
<g>
</g>
</svg>
