<svg id="Layer_3" enable-background="new 0 0 64 64" height="512" viewBox="0 0 64 64" width="512" xmlns="http://www.w3.org/2000/svg"><g><path d="m37.584 41.998c.415 0 .783-.264.914-.658l2.121-6.361c-.722-.028-1.441-.134-2.136-.337-.532 1.3-1.443 2.393-2.583 3.16l.742 3.436c.095.441.491.76.942.76z"/><path d="m42.787 34.799-2.391 7.174c-.404 1.212-1.534 2.025-2.812 2.025-1.386 0-2.604-.982-2.896-2.337l-.642-2.973c-.651.201-1.339.31-2.047.31-.711 0-1.398-.107-2.048-.304l-.641 2.967c-.292 1.354-1.511 2.337-2.896 2.337-1.277 0-2.407-.813-2.812-2.024l-2.389-7.171c-.994-.199-1.958-.554-2.831-1.076-1.297.651-2.708 1.051-4.155 1.2 5.187 5.741 8.77 12.713 10.373 20.321l1.043 4.958c.097.459.508.794.979.794h10.755c.47 0 .881-.335.979-.796l1.042-4.956c1.602-7.608 5.185-14.579 10.371-20.319-1.472-.15-2.881-.563-4.168-1.21-.873.518-1.826.88-2.814 1.08z"/><path d="m26.414 41.998c.451 0 .847-.319.942-.76l.738-3.42c-1.141-.763-2.049-1.857-2.581-3.174-.693.201-1.412.304-2.135.332l2.121 6.365c.132.393.5.657.915.657z"/><path d="m51.684 13.021c-.281-.019-.541-.156-.717-.377-.102-.129-.169-.279-.198-.438-.811-3.069-3.585-5.207-6.769-5.207-2.494 0-4.818 1.342-6.067 3.504l-1.731-1.001c.781-1.353 1.895-2.45 3.198-3.226-1.884-2.07-4.573-3.278-7.4-3.278-3.22 0-6.263 1.566-8.139 4.188-.292.409-.837.531-1.271.308-.823-.329-1.694-.496-2.59-.496-2.755 0-5.193 1.607-6.328 4.025 2.102.117 4.128.773 5.893 1.93l-1.095 1.673c-1.627-1.064-3.519-1.627-5.471-1.627-5.514 0-10 4.485-10 10 0 5.514 4.486 9.999 10 9.999 1.734 0 3.441-.449 4.938-1.301.335-.191.75-.173 1.067.049 1.954 1.366 4.576 1.625 6.756.688.275-.118.585-.106.848.026.265.135.456.379.522.668.522 2.278 2.525 3.869 4.869 3.869 2.365 0 4.426-1.678 4.898-3.99.101-.493.572-.846 1.057-.796.295.022.553.171.72.393 1.599.563 3.388.502 4.961-.13-1.348-1.049-2.483-2.389-3.301-3.97l1.776-.919c1.727 3.339 5.133 5.413 8.89 5.413 5.514 0 10-4.485 10-10 0-5.241-4.093-9.623-9.316-9.977zm-28.685 17.977c-1.422 0-2.778-.61-3.721-1.676-.314-.355-.91-.375-1.327-.046-1.423 1.127-3.135 1.722-4.951 1.722-4.412 0-8-3.588-8-7.999h2c0 3.308 2.691 5.999 6 5.999 1.361 0 2.644-.445 3.71-1.289 1.257-.995 3.043-.868 4.065.288.563.637 1.374 1.001 2.224 1.001 1.654 0 3-1.346 3-2.999h2c0 2.757-2.242 4.999-5 4.999z"/></g></svg>