<svg id="Capa_1" enable-background="new 0 0 512 512" height="512" viewBox="0 0 512 512" width="512" xmlns="http://www.w3.org/2000/svg"><g><circle cx="232.575" cy="37.035" r="37.035"/><path d="m328.769 30.084h30v30h-30z"/><path d="m364.466 89.45h30v30h-30z"/><path d="m243.906 130.656v10.124h39.398v-10.124c0-10.676-8.837-19.361-19.699-19.361s-19.699 8.685-19.699 19.361z"/><path d="m313.305 301.092c0 10.676 8.837 19.361 19.698 19.361 10.862 0 19.699-8.686 19.699-19.361v-130.312h-108.796v71.926c0 10.676 8.837 19.362 19.699 19.362s19.699-8.686 19.699-19.362v-31.022h30v89.408z"/><path d="m444.268 404.124c21.76-38.151 24.137-84.88 6.357-125l-34.719-78.344h42.541v-30h-75.744v130.312c0 27.218-22.295 49.361-49.698 49.361-27.404 0-49.699-22.144-49.699-49.361v-13.077c-6.044 2.602-12.703 4.053-19.699 4.053-27.404 0-49.699-22.144-49.699-49.362v-22.149c-7.601 3.906-16.215 6.127-25.348 6.127-30.519 0-55.348-24.653-55.348-54.956 0-.318.019-.632.024-.948h-79.682v30h42.541l-34.719 78.345c-17.779 40.119-15.402 86.848 6.357 124.999 25.049 43.917 72.275 71.2 123.249 71.2h130.037c50.973-.001 98.2-27.283 123.249-71.2z"/><ellipse cx="124.061" cy="100.432" rx="40.935" ry="40.348"/><ellipse cx="188.559" cy="171.728" rx="25.348" ry="24.956"/><path d="m64.468 512h51.457l10.296-19.318c-18.187-7.366-35.01-17.777-49.682-30.791z"/><path d="m385.78 492.682 10.296 19.318h51.457l-12.07-50.109c-14.673 13.015-31.496 23.425-49.683 30.791z"/></g></svg>