<svg height="512pt" viewBox="0 0 512 512.001" width="512pt" xmlns="http://www.w3.org/2000/svg"><path d="m175 233h40c0-23.160156 18.839844-42 42-42s42 18.839844 42 42h40c0-26.933594-13.054688-50.871094-33.167969-65.828125 7.628907-10.066406 12.167969-22.597656 12.167969-36.171875 0-33.085938-26.914062-60-60-60-33.082031 0-60 26.914062-60 60 0 13.160156 4.269531 25.335938 11.480469 35.238281-20.847657 14.878907-34.480469 39.25-34.480469 66.761719zm83-122c11.027344 0 20 8.972656 20 20s-8.972656 20-20 20-20-8.972656-20-20 8.972656-20 20-20zm194 281c-5.371094 0-10.574219.71875-15.527344 2.050781l-68.613281-99.933593c35.007813-30.808594 57.140625-75.925782 57.140625-126.117188 0-92.636719-75.363281-168-168-168s-168 75.363281-168 168c0 49.859375 21.839844 94.707031 56.449219 125.503906l-69.867188 100.558594c-4.972656-1.335938-10.191406-2.0625-15.582031-2.0625-33.082031 0-60 26.914062-60 60s26.917969 60 60 60c33.085938 0 60-26.914062 60-60 0-13.160156-4.269531-25.335938-11.480469-35.238281l69.75-100.390625c17.90625 9.539062 37.730469 15.929687 58.730469 18.433594v60.296874c-23.796875 7.96875-41 30.457032-41 56.898438 0 33.085938 26.917969 60 60 60 33.085938 0 60-26.914062 60-60 0-25.695312-16.242188-47.664062-39-56.199219v-60.996093c20.683594-2.464844 40.222656-8.699219 57.914062-18l68.601563 99.914062c-7.234375 9.910156-11.515625 22.101562-11.515625 35.28125 0 33.085938 26.917969 60 60 60 33.085938 0 60-26.914062 60-60s-26.914062-60-60-60zm-392 80c-11.027344 0-20-8.972656-20-20s8.972656-20 20-20 20 8.972656 20 20-8.972656 20-20 20zm69-304c0-70.578125 57.421875-128 128-128 70.582031 0 128 57.421875 128 128s-57.417969 128-128 128c-70.578125 0-128-57.421875-128-128zm127 304c-11.027344 0-20-8.972656-20-20s8.972656-20 20-20 20 8.972656 20 20-8.972656 20-20 20zm196 0c-11.027344 0-20-8.972656-20-20s8.972656-20 20-20 20 8.972656 20 20-8.972656 20-20 20zm0 0"/></svg>