<?xml version="1.0" encoding="iso-8859-1"?>
<!-- Generator: Adobe Illustrator 19.0.0, SVG Export Plug-In . SVG Version: 6.00 Build 0)  -->
<svg version="1.1" id="Capa_1" xmlns="http://www.w3.org/2000/svg" xmlns:xlink="http://www.w3.org/1999/xlink" x="0px" y="0px"
	 viewBox="0 0 512 512" style="enable-background:new 0 0 512 512;" xml:space="preserve">
<g>
	<g>
		<path d="M106,392c-41.353,0-75,33.647-75,75v30c0,8.291,6.709,15,15,15h75V392H106z"/>
	</g>
</g>
<g>
	<g>
		<path d="M413.5,392H391v120h75c8.291,0,15-6.709,15-15v-37.5C481,422.278,450.722,392,413.5,392z"/>
	</g>
</g>
<g>
	<g>
		<path d="M256,0c-74.443,0-135,60.557-135,135v152c0,20.01,13.213,36.806,31.306,42.642c2.981,24.252,13.792,46.091,30.443,62.358
			H151v120h210V392h-31.749c16.652-16.267,27.462-38.106,30.443-62.358C377.787,323.806,391,307.01,391,287V135
			C391,60.557,330.443,0,256,0z M255.628,470.516L221.263,422h66.709L255.628,470.516z M256,392
			c-36.216,0-66.513-25.909-73.482-60.1h146.964C322.513,366.091,292.216,392,256,392z"/>
	</g>
</g>
<g>
</g>
<g>
</g>
<g>
</g>
<g>
</g>
<g>
</g>
<g>
</g>
<g>
</g>
<g>
</g>
<g>
</g>
<g>
</g>
<g>
</g>
<g>
</g>
<g>
</g>
<g>
</g>
<g>
</g>
</svg>
