<svg id="Capa_1" enable-background="new 0 0 512 512" height="512" viewBox="0 0 512 512" width="512" xmlns="http://www.w3.org/2000/svg"><path d="m256 226.662c15.893 0 30.99-1.903 42.512-5.359l187.043-56.113c21.857-6.56 26.445-17.667 26.445-25.829 0-8.161-4.59-19.268-26.447-25.824l-187.041-56.113c-11.521-3.456-26.619-5.359-42.512-5.359-15.891 0-30.988 1.902-42.512 5.359l-187.039 56.113c-21.861 6.557-26.449 17.663-26.449 25.824-.002 8.162 4.588 19.269 26.447 25.828l187.043 56.113c11.522 3.458 26.619 5.36 42.51 5.36z"/><path d="m256 256.662c-19.006 0-36.688-2.291-51.131-6.625l-108.469-32.541v42.365c0 14.04 9.127 33.819 52.609 48.314 28.799 9.601 66.797 14.888 106.99 14.888s78.19-5.287 106.99-14.888c43.482-14.494 52.609-34.273 52.609-48.314v-42.365l-108.469 32.541c-14.444 4.334-32.125 6.625-51.129 6.625z"/><path d="m479.867 303.863v-105.647l-30 9v96.648c-18.654 6.282-32.133 23.928-32.133 44.674v64.266c0 25.989 21.145 47.133 47.133 47.133 25.99 0 47.133-21.143 47.133-47.133v-64.266c0-20.747-13.478-38.392-32.133-44.675z"/></svg>