<svg height="444pt" viewBox="-47 0 444 444" width="444pt" xmlns="http://www.w3.org/2000/svg"><path d="m112.605469 196h52.789062l-26.394531-53.867188zm0 0"/><path d="m139 232.742188c15.347656 0 28.25-9.742188 31.714844-22.742188h-63.425782c3.460938 13 16.367188 22.742188 31.710938 22.742188zm0 0"/><path d="m37.5 355h22.628906v-355h-22.632812c-20.558594 0-37.367188 17.050781-37.367188 37.609375v333.601563c9.652344-10.378907 23.199219-16.253907 37.371094-16.210938zm0 0"/><path d="m326.128906 369h-288.628906c-20.710938 0-37.5 16.789062-37.5 37.5s16.789062 37.5 37.5 37.5h288.628906zm0 0"/><path d="m159.128906 271h106v5h-106zm0 0"/><path d="m350.128906 0h-276v355h276zm-64.871094 247.191406c-25.707031 0-46.621093-19.5625-46.621093-43.683594.003906-2.828124 1.75-5.359374 4.386719-6.371093l31.546874-64.136719h-55.441406v124h52.792969c3.917969.011719 7.113281 3.140625 7.207031 7.058594v19.203125c-.058594 1.847656-.851562 3.601562-2.203125 4.863281-1.355469 1.265625-3.152343 1.941406-5.003906 1.875h-119.582031c-1.851563.066406-3.652344-.609375-5.003906-1.875-1.355469-1.261719-2.148438-3.015625-2.207032-4.867188v-19.199218c.09375-3.917969 3.289063-7.046875 7.210938-7.058594h52.789062v-124h-55.4375l31.542969 64.136719c2.628906.957031 4.382813 3.449219 4.390625 6.25 0 24.121093-20.914062 43.742187-46.625 43.742187-25.707031 0-46.625-19.621094-46.625-43.742187.011719-2.800781 1.761719-5.292969 4.390625-6.25l31.546875-64.136719h-10.390625c-3.867187 0-7-3.132812-7-7s3.132813-7 7-7h87.207031v-11.5c-11.652344-3.472656-19.601562-14.234375-19.492187-26.390625 0-15.089844 11.886719-27.367187 26.492187-27.367187 14.609375 0 26.492188 12.277343 26.492188 27.367187.109375 12.15625-7.839844 22.917969-19.492188 26.390625v11.5h87.210938c3.863281 0 7 3.132812 7 7s-3.136719 7-7 7h-10.390625l31.542969 64.152344c2.632812.964844 4.382812 3.460937 4.390624 6.261718 0 24.121094-20.914062 43.777344-46.625 43.777344zm0 0"/><path d="m285.257812 232.742188c15.347657 0 28.253907-9.742188 31.714844-22.742188h-63.425781c3.460937 13 16.367187 22.742188 31.710937 22.742188zm0 0"/><path d="m285.257812 142.132812-26.394531 53.867188h52.789063zm0 0"/><path d="m224.621094 81.109375c0-7.371094-5.597656-13.367187-12.492188-13.367187-6.890625 0-12.492187 6-12.492187 13.367187s5.601562 13.367187 12.492187 13.367187c6.894532 0 12.492188-5.996093 12.492188-13.367187zm0 0"/></svg>