<svg id="Capa_1" enable-background="new 0 0 512 512" height="512" viewBox="0 0 512 512" width="512" xmlns="http://www.w3.org/2000/svg"><g><path d="m280.39 206.36h-48.78c-6.74 0-12.2 5.46-12.2 12.19v60.99h-24.39c-6.74 0-12.2 5.46-12.2 12.2v50.98h73.18 73.18v-50.98c0-6.74-5.46-12.2-12.2-12.2h-24.39v-60.99c0-6.73-5.46-12.19-12.2-12.19z"/><path d="m400.47 172.23v170.49h30v-172.08c-10.097 2.402-20.427 2.821-30 1.59z"/><path d="m80.47 170.38v172.34h30v-170.38c-10.037 1.171-20.263.497-30-1.96z"/><path d="m80.47 497c0 8.28 6.71 15 15 15h320c8.28 0 15-6.72 15-15v-124.28h-350zm75-84.28h200c8.28 0 15 6.71 15 15 0 8.28-6.72 15-15 15h-200c-8.29 0-15-6.72-15-15 0-8.29 6.71-15 15-15z"/><path d="m449.89 0h-387.78c-8.28 0-15 6.72-15 15v74.13c0 29.65 24.13 53.77 53.78 53.77 15.23 0 28.99-6.37 38.78-16.57 9.79 10.2 23.55 16.57 38.78 16.57 15.22 0 28.98-6.37 38.77-16.57 9.8 10.2 23.55 16.57 38.78 16.57s28.99-6.37 38.78-16.57c9.79 10.2 23.55 16.57 38.78 16.57 15.22 0 28.98-6.37 38.77-16.57 9.8 10.2 23.55 16.57 38.78 16.57 29.65 0 53.78-24.12 53.78-53.77v-74.13c0-8.28-6.72-15-15-15z"/></g></svg>