<svg id="Layer_1" enable-background="new 0 0 512 512" height="512" viewBox="0 0 512 512" width="512" xmlns="http://www.w3.org/2000/svg"><g><path d="m18.24 173.836c7.606 2.54 21.004 8.195 33.763 20.954s18.414 26.156 20.954 33.763c1.829 5.556 7.149 10.29 14.246 10.293 7.097-.003 12.417-4.737 14.246-10.293 2.54-7.606 8.195-21.004 20.954-33.763s26.158-18.414 33.763-20.954c5.556-1.829 10.29-7.149 10.293-14.246-.003-7.097-4.737-12.417-10.293-14.246-7.606-2.54-21.004-8.195-33.763-20.954s-18.414-26.156-20.954-33.763c-1.829-5.556-7.149-10.29-14.246-10.293-7.097.003-12.417 4.737-14.246 10.293-2.54 7.606-8.195 21.004-20.954 33.763s-26.158 18.414-33.763 20.954c-5.556 1.829-10.29 7.149-10.293 14.246.003 7.097 4.737 12.416 10.293 14.246z"/><path d="m249.119 159.6c0 8.284 6.716 15 15 15h17.134v17.133c0 8.284 6.716 15 15 15s15-6.716 15-15v-17.133h17.133c8.284 0 15-6.716 15-15s-6.716-15-15-15h-17.133v-17.133c0-8.284-6.716-15-15-15s-15 6.716-15 15v17.133h-17.134c-8.284 0-15 6.716-15 15z"/><path d="m183.786 62.133h17.133v17.133c0 8.284 6.716 15 15 15s15-6.716 15-15v-17.133h17.134c8.284 0 15-6.716 15-15s-6.716-15-15-15h-17.134v-17.133c0-8.284-6.716-15-15-15s-15 6.716-15 15v17.133h-17.133c-8.284 0-15 6.716-15 15s6.716 15 15 15z"/><path d="m259.437 452.244c.533-.067 15.705-2.051 29.916-11.629.539-.364 1.044-.752 1.566-1.128l27.271-136.354h10.196c8.284 0 15-6.716 15-15s-6.716-15-15-15h-289.2c-8.284 0-15 6.716-15 15s6.716 15 15 15h10.197l26.93 134.653c1.554-.98 3.017-2.144 4.358-3.484l92.51-92.509c5.857-5.858 15.355-5.858 21.213 0s5.858 15.355 0 21.213l-92.51 92.51c-4.764 4.764-11.474 9.441-19.518 12.536l6.378 31.89c1.402 7.011 7.558 12.058 14.708 12.058h118.228c-1.415-4.015-2.282-8.296-2.505-12.758-1.194-23.908 16.477-44.512 40.262-46.998z"/><path d="m53.506 439.706c-9.347-3.871-15.387-12.911-15.387-23.041 0-3.022.566-5.956 1.637-8.688l-7.538-37.689-8.346 8.346c-10.159 10.159-15.754 23.665-15.754 38.043 0 22.295 13.31 42.214 33.907 50.745 14.976 6.204 28.987 4.997 40.339.63l-6.053-30.266c-6.743 4.255-15.208 5.065-22.805 1.92z"/><path d="m439.787 276.301v-261.301c0-8.284-6.716-15-15-15s-15 6.716-15 15v261.301c4.905-.677 9.911-1.034 15-1.034 5.088 0 10.094.357 15 1.034z"/><path d="m424.787 305.267c-43.708 0-79.267 35.559-79.267 79.267 0 88.282-80.784 97.315-82.893 97.541-7.954.795-13.888 7.689-13.489 15.673s6.987 14.252 14.981 14.252h112.467c112.958 0 127.467-85.037 127.467-127.467 0-43.708-35.558-79.266-79.266-79.266z"/></g></svg>