<svg id="Capa_1" enable-background="new 0 0 512 512" height="512" viewBox="0 0 512 512" width="512" xmlns="http://www.w3.org/2000/svg"><path d="m5.629 388.887c-3.332 2.665-5.371 6.623-5.606 10.883s1.354 8.419 4.371 11.436l96.4 96.4c2.82 2.821 6.639 4.394 10.605 4.394.276 0 .553-.008.831-.023 4.26-.236 8.218-2.275 10.883-5.606l46.657-58.321-105.819-105.82z"/><path d="m314.807 245.394-48.2-48.2c-5.404-5.405-14.008-5.881-19.977-1.106l-159.109 127.286 101.105 101.106 127.287-159.109c4.775-5.969 4.298-14.573-1.106-19.977z"/><path d="m497 0h-56.233c-4.845 0-9.391 2.339-12.206 6.281l-40.167 56.233c-4.262 5.967-3.586 14.141 1.6 19.325l9.477 9.477-98.157 98.157 21.213 21.213 98.158-98.157 9.477 9.477c2.904 2.904 6.745 4.394 10.611 4.394 3.036 0 6.089-.919 8.714-2.794l56.233-40.167c3.94-2.815 6.28-7.361 6.28-12.206v-56.233c0-8.284-6.716-15-15-15z"/><path d="m103.367 238.867h41.764l82.758-66.206c3.344-2.675 7.051-4.838 10.978-6.453v-62.841c0-56.997-46.37-103.367-103.367-103.367h-56.233c-6.067 0-11.537 3.655-13.859 9.26-2.321 5.605-1.038 12.057 3.252 16.347l48.203 48.203c11.889 11.889 11.889 31.165 0 43.054s-31.165 11.889-43.054 0l-48.203-48.204c-4.29-4.291-10.743-5.574-16.347-3.252s-9.259 7.792-9.259 13.859v56.233c0 56.997 46.37 103.367 103.367 103.367z"/><path d="m408.633 273.133h-62.813c-1.594 3.863-3.75 7.562-6.481 10.977l-66.207 82.758v41.765c.001 56.997 46.371 103.367 103.368 103.367h56.233c6.067 0 11.537-3.655 13.859-9.26 2.321-5.605 1.038-12.057-3.252-16.347l-48.203-48.203c-11.889-11.889-11.889-31.165 0-43.054s31.165-11.889 43.054 0l48.203 48.203c4.29 4.291 10.743 5.574 16.347 3.252 5.605-2.322 9.26-7.792 9.26-13.859v-56.232c-.001-56.997-46.371-103.367-103.368-103.367z"/></svg>